<svg width="174" height="54" viewBox="0 0 174 54" fill="none" xmlns="http://www.w3.org/2000/svg">
<path d="M53.9758 21.376H41.8798L49.4758 0.639998L53.2198 2.044L47.4958 17.596H53.9758L54.1918 11.584H58.1878V17.596H61.8598V21.376H58.1878V28H53.9758V21.376ZM75.4785 28.54C72.1665 28.54 69.7305 27.268 68.1705 24.724C66.6105 22.18 65.8305 18.868 65.8305 14.788C65.8305 10.588 66.5865 7.264 68.0985 4.816C69.6105 2.344 72.0705 1.108 75.4785 1.108C81.8865 1.108 85.0905 5.668 85.0905 14.788C85.0905 18.94 84.3105 22.276 82.7505 24.796C81.1905 27.292 78.7665 28.54 75.4785 28.54ZM75.4785 24.868C77.4465 24.868 78.8025 23.932 79.5465 22.06C80.3145 20.164 80.6985 17.74 80.6985 14.788C80.6985 11.692 80.3265 9.244 79.5825 7.444C78.8385 5.644 77.4705 4.744 75.4785 4.744C73.4865 4.744 72.1065 5.644 71.3385 7.444C70.5945 9.244 70.2225 11.692 70.2225 14.788C70.2225 21.508 71.9745 24.868 75.4785 24.868ZM98.787 28.54C95.475 28.54 93.039 27.268 91.479 24.724C89.919 22.18 89.139 18.868 89.139 14.788C89.139 10.588 89.895 7.264 91.407 4.816C92.919 2.344 95.379 1.108 98.787 1.108C105.195 1.108 108.399 5.668 108.399 14.788C108.399 18.94 107.619 22.276 106.059 24.796C104.499 27.292 102.075 28.54 98.787 28.54ZM98.787 24.868C100.755 24.868 102.111 23.932 102.855 22.06C103.623 20.164 104.007 17.74 104.007 14.788C104.007 11.692 103.635 9.244 102.891 7.444C102.147 5.644 100.779 4.744 98.787 4.744C96.795 4.744 95.415 5.644 94.647 7.444C93.903 9.244 93.531 11.692 93.531 14.788C93.531 21.508 95.283 24.868 98.787 24.868ZM120.296 18.064H113.492V14.752H120.296V8.128H123.788V14.752H130.628V18.064H123.788V24.688H120.296V18.064ZM5.2871 53.18C3.6311 53.18 2.4311 52.682 1.6871 51.686C0.943102 50.69 0.571102 49.244 0.571102 47.348V39.77H2.5871V47.384C2.5871 48.788 2.7971 49.796 3.2171 50.408C3.6371 51.008 4.3271 51.308 5.2871 51.308C6.2471 51.308 6.9311 51.014 7.3391 50.426C7.7591 49.826 7.9691 48.812 7.9691 47.384V39.77H10.0031V47.348C10.0031 49.232 9.6071 50.678 8.8151 51.686C8.0351 52.682 6.8591 53.18 5.2871 53.18ZM19.9951 53H17.7091L16.0351 50.3L15.5671 49.382L14.4871 50.552V53H12.6151V39.77H14.4691V47.024L14.4331 48.428L17.5831 44.738H19.9771L16.8631 48.194L19.9951 53ZM21.4886 44.738H23.4326V46.358C23.6246 45.806 23.9366 45.362 24.3686 45.026C24.8006 44.69 25.2926 44.522 25.8446 44.522C26.2286 44.522 26.4926 44.558 26.6366 44.63L26.3666 46.592C26.2586 46.52 26.0246 46.484 25.6646 46.484C25.1006 46.484 24.5846 46.664 24.1166 47.024C23.6606 47.384 23.4326 47.96 23.4326 48.752V53H21.4886V44.738ZM31.6654 53.18C30.9214 53.18 30.2314 53.006 29.5954 52.658C28.9714 52.298 28.4674 51.794 28.0834 51.146C27.7114 50.486 27.5254 49.718 27.5254 48.842C27.5254 47.978 27.6874 47.222 28.0114 46.574C28.3474 45.926 28.8214 45.422 29.4334 45.062C30.0454 44.702 30.7654 44.522 31.5934 44.522C32.0734 44.522 32.5234 44.606 32.9434 44.774C33.3634 44.942 33.7174 45.152 34.0054 45.404C34.2934 45.644 34.4854 45.884 34.5814 46.124L34.6174 44.738H36.4714V53H34.6354L34.5994 51.542C34.3954 51.974 34.0234 52.358 33.4834 52.694C32.9434 53.018 32.3374 53.18 31.6654 53.18ZM31.9894 51.56C32.6734 51.56 33.2494 51.326 33.7174 50.858C34.1854 50.378 34.4194 49.754 34.4194 48.986V48.86C34.4194 48.344 34.3114 47.882 34.0954 47.474C33.8794 47.066 33.5854 46.748 33.2134 46.52C32.8414 46.292 32.4334 46.178 31.9894 46.178C31.2214 46.178 30.6274 46.43 30.2074 46.934C29.7874 47.426 29.5774 48.068 29.5774 48.86C29.5774 49.664 29.7814 50.318 30.1894 50.822C30.6094 51.314 31.2094 51.56 31.9894 51.56ZM39.2296 44.738H41.2456V53H39.2296V44.738ZM40.2196 43.19C39.8476 43.19 39.5356 43.064 39.2836 42.812C39.0316 42.56 38.9056 42.248 38.9056 41.876C38.9056 41.54 39.0316 41.252 39.2836 41.012C39.5356 40.772 39.8476 40.652 40.2196 40.652C40.5796 40.652 40.8856 40.772 41.1376 41.012C41.3896 41.252 41.5156 41.54 41.5156 41.876C41.5156 42.248 41.3896 42.56 41.1376 42.812C40.8976 43.064 40.5916 43.19 40.2196 43.19ZM43.9372 44.738H45.8452L45.8632 46.25C46.0912 45.746 46.4512 45.332 46.9432 45.008C47.4352 44.684 48.0112 44.522 48.6712 44.522C49.5232 44.522 50.1772 44.702 50.6332 45.062C51.0892 45.41 51.3952 45.902 51.5512 46.538C51.7072 47.174 51.7852 48.002 51.7852 49.022V53H49.8412V49.076C49.8412 48.032 49.7392 47.282 49.5352 46.826C49.3312 46.358 48.9112 46.124 48.2752 46.124C47.9152 46.124 47.5492 46.238 47.1772 46.466C46.8052 46.682 46.4932 47 46.2412 47.42C46.0012 47.84 45.8812 48.332 45.8812 48.896V53H43.9372V44.738ZM54.4347 44.738H56.4507V53H54.4347V44.738ZM55.4247 43.19C55.0527 43.19 54.7407 43.064 54.4887 42.812C54.2367 42.56 54.1107 42.248 54.1107 41.876C54.1107 41.54 54.2367 41.252 54.4887 41.012C54.7407 40.772 55.0527 40.652 55.4247 40.652C55.7847 40.652 56.0907 40.772 56.3427 41.012C56.5947 41.252 56.7207 41.54 56.7207 41.876C56.7207 42.248 56.5947 42.56 56.3427 42.812C56.1027 43.064 55.7967 43.19 55.4247 43.19ZM62.7963 53.18C62.0523 53.18 61.3623 53.006 60.7263 52.658C60.1023 52.298 59.5983 51.794 59.2143 51.146C58.8423 50.486 58.6563 49.718 58.6563 48.842C58.6563 47.978 58.8183 47.222 59.1423 46.574C59.4783 45.926 59.9523 45.422 60.5643 45.062C61.1763 44.702 61.8963 44.522 62.7243 44.522C63.2043 44.522 63.6543 44.606 64.0743 44.774C64.4943 44.942 64.8483 45.152 65.1363 45.404C65.4243 45.644 65.6163 45.884 65.7123 46.124L65.7483 44.738H67.6023V53H65.7663L65.7303 51.542C65.5263 51.974 65.1543 52.358 64.6143 52.694C64.0743 53.018 63.4683 53.18 62.7963 53.18ZM63.1203 51.56C63.8043 51.56 64.3803 51.326 64.8483 50.858C65.3163 50.378 65.5503 49.754 65.5503 48.986V48.86C65.5503 48.344 65.4423 47.882 65.2263 47.474C65.0103 47.066 64.7163 46.748 64.3443 46.52C63.9723 46.292 63.5643 46.178 63.1203 46.178C62.3523 46.178 61.7583 46.43 61.3383 46.934C60.9183 47.426 60.7083 48.068 60.7083 48.86C60.7083 49.664 60.9123 50.318 61.3203 50.822C61.7403 51.314 62.3403 51.56 63.1203 51.56ZM70.2165 44.738H72.1245L72.1425 46.25C72.3705 45.746 72.7305 45.332 73.2225 45.008C73.7145 44.684 74.2905 44.522 74.9505 44.522C75.8025 44.522 76.4565 44.702 76.9125 45.062C77.3685 45.41 77.6745 45.902 77.8305 46.538C77.9865 47.174 78.0645 48.002 78.0645 49.022V53H76.1205V49.076C76.1205 48.032 76.0185 47.282 75.8145 46.826C75.6105 46.358 75.1905 46.124 74.5545 46.124C74.1945 46.124 73.8285 46.238 73.4565 46.466C73.0845 46.682 72.7725 47 72.5205 47.42C72.2805 47.84 72.1605 48.332 72.1605 48.896V53H70.2165V44.738ZM85.7561 46.286H84.4241V44.738H85.7561V42.956C85.7561 41.876 86.0141 41.042 86.5301 40.454C87.0581 39.854 87.8261 39.554 88.8341 39.554C89.2421 39.554 89.7041 39.668 90.2201 39.896L89.8421 41.732C89.7581 41.636 89.6261 41.546 89.4461 41.462C89.2781 41.366 89.0921 41.318 88.8881 41.318C88.0841 41.318 87.6761 41.84 87.6641 42.884V44.738H89.6081V46.286H87.6641V53H85.7561V46.286ZM91.4496 44.738H93.3936V46.358C93.5856 45.806 93.8976 45.362 94.3296 45.026C94.7616 44.69 95.2536 44.522 95.8056 44.522C96.1896 44.522 96.4536 44.558 96.5976 44.63L96.3276 46.592C96.2196 46.52 95.9856 46.484 95.6256 46.484C95.0616 46.484 94.5456 46.664 94.0776 47.024C93.6216 47.384 93.3936 47.96 93.3936 48.752V53H91.4496V44.738ZM101.878 53.18C100.894 53.18 100.072 52.988 99.4123 52.604C98.7523 52.208 98.2663 51.686 97.9543 51.038C97.6423 50.378 97.4863 49.658 97.4863 48.878C97.4863 48.002 97.6663 47.234 98.0263 46.574C98.3983 45.914 98.9083 45.41 99.5563 45.062C100.204 44.702 100.936 44.522 101.752 44.522C103.024 44.522 103.966 44.876 104.578 45.584C105.202 46.28 105.514 47.264 105.514 48.536C105.514 48.86 105.496 49.196 105.46 49.544H99.5203C99.6523 50.276 99.9103 50.804 100.294 51.128C100.69 51.452 101.236 51.614 101.932 51.614C102.508 51.614 102.982 51.566 103.354 51.47C103.726 51.374 104.068 51.242 104.38 51.074L104.974 52.46C104.674 52.652 104.266 52.82 103.75 52.964C103.234 53.108 102.61 53.18 101.878 53.18ZM103.624 48.194C103.636 47.45 103.474 46.928 103.138 46.628C102.802 46.316 102.322 46.16 101.698 46.16C100.438 46.16 99.7123 46.838 99.5203 48.194H103.624ZM111.458 53.18C110.474 53.18 109.652 52.988 108.992 52.604C108.332 52.208 107.846 51.686 107.534 51.038C107.222 50.378 107.066 49.658 107.066 48.878C107.066 48.002 107.246 47.234 107.606 46.574C107.978 45.914 108.488 45.41 109.136 45.062C109.784 44.702 110.516 44.522 111.332 44.522C112.604 44.522 113.546 44.876 114.158 45.584C114.782 46.28 115.094 47.264 115.094 48.536C115.094 48.86 115.076 49.196 115.04 49.544H109.1C109.232 50.276 109.49 50.804 109.874 51.128C110.27 51.452 110.816 51.614 111.512 51.614C112.088 51.614 112.562 51.566 112.934 51.47C113.306 51.374 113.648 51.242 113.96 51.074L114.554 52.46C114.254 52.652 113.846 52.82 113.33 52.964C112.814 53.108 112.19 53.18 111.458 53.18ZM113.204 48.194C113.216 47.45 113.054 46.928 112.718 46.628C112.382 46.316 111.902 46.16 111.278 46.16C110.018 46.16 109.292 46.838 109.1 48.194H113.204ZM117.294 39.77H119.22V53H117.294V39.77ZM125.603 53.18C124.859 53.18 124.169 53.006 123.533 52.658C122.909 52.298 122.405 51.794 122.021 51.146C121.649 50.486 121.463 49.718 121.463 48.842C121.463 47.978 121.625 47.222 121.949 46.574C122.285 45.926 122.759 45.422 123.371 45.062C123.983 44.702 124.703 44.522 125.531 44.522C126.011 44.522 126.461 44.606 126.881 44.774C127.301 44.942 127.655 45.152 127.943 45.404C128.231 45.644 128.423 45.884 128.519 46.124L128.555 44.738H130.409V53H128.573L128.537 51.542C128.333 51.974 127.961 52.358 127.421 52.694C126.881 53.018 126.275 53.18 125.603 53.18ZM125.927 51.56C126.611 51.56 127.187 51.326 127.655 50.858C128.123 50.378 128.357 49.754 128.357 48.986V48.86C128.357 48.344 128.249 47.882 128.033 47.474C127.817 47.066 127.523 46.748 127.151 46.52C126.779 46.292 126.371 46.178 125.927 46.178C125.159 46.178 124.565 46.43 124.145 46.934C123.725 47.426 123.515 48.068 123.515 48.86C123.515 49.664 123.719 50.318 124.127 50.822C124.547 51.314 125.147 51.56 125.927 51.56ZM133.023 44.738H134.931L134.949 46.25C135.177 45.746 135.537 45.332 136.029 45.008C136.521 44.684 137.097 44.522 137.757 44.522C138.609 44.522 139.263 44.702 139.719 45.062C140.175 45.41 140.481 45.902 140.637 46.538C140.793 47.174 140.871 48.002 140.871 49.022V53H138.927V49.076C138.927 48.032 138.825 47.282 138.621 46.826C138.417 46.358 137.997 46.124 137.361 46.124C137.001 46.124 136.635 46.238 136.263 46.466C135.891 46.682 135.579 47 135.327 47.42C135.087 47.84 134.967 48.332 134.967 48.896V53H133.023V44.738ZM147.229 53.18C146.413 53.18 145.675 53.006 145.015 52.658C144.367 52.298 143.851 51.788 143.467 51.128C143.083 50.456 142.891 49.67 142.891 48.77C142.891 47.918 143.065 47.174 143.413 46.538C143.773 45.89 144.271 45.392 144.907 45.044C145.555 44.696 146.299 44.522 147.139 44.522C147.775 44.522 148.321 44.606 148.777 44.774C149.245 44.93 149.611 45.128 149.875 45.368L149.011 46.934C148.507 46.43 147.937 46.178 147.301 46.178C146.533 46.178 145.945 46.412 145.537 46.88C145.141 47.348 144.943 47.972 144.943 48.752C144.943 49.64 145.147 50.33 145.555 50.822C145.975 51.314 146.557 51.56 147.301 51.56C147.673 51.56 148.033 51.506 148.381 51.398C148.741 51.29 149.017 51.164 149.209 51.02L149.911 52.388C149.647 52.592 149.275 52.778 148.795 52.946C148.327 53.102 147.805 53.18 147.229 53.18ZM155.667 53.18C154.683 53.18 153.861 52.988 153.201 52.604C152.541 52.208 152.055 51.686 151.743 51.038C151.431 50.378 151.275 49.658 151.275 48.878C151.275 48.002 151.455 47.234 151.815 46.574C152.187 45.914 152.697 45.41 153.345 45.062C153.993 44.702 154.725 44.522 155.541 44.522C156.813 44.522 157.755 44.876 158.367 45.584C158.991 46.28 159.303 47.264 159.303 48.536C159.303 48.86 159.285 49.196 159.249 49.544H153.309C153.441 50.276 153.699 50.804 154.083 51.128C154.479 51.452 155.025 51.614 155.721 51.614C156.297 51.614 156.771 51.566 157.143 51.47C157.515 51.374 157.857 51.242 158.169 51.074L158.763 52.46C158.463 52.652 158.055 52.82 157.539 52.964C157.023 53.108 156.399 53.18 155.667 53.18ZM157.413 48.194C157.425 47.45 157.263 46.928 156.927 46.628C156.591 46.316 156.111 46.16 155.487 46.16C154.227 46.16 153.501 46.838 153.309 48.194H157.413ZM161.287 44.738H163.231V46.358C163.423 45.806 163.735 45.362 164.167 45.026C164.599 44.69 165.091 44.522 165.643 44.522C166.027 44.522 166.291 44.558 166.435 44.63L166.165 46.592C166.057 46.52 165.823 46.484 165.463 46.484C164.899 46.484 164.383 46.664 163.915 47.024C163.459 47.384 163.231 47.96 163.231 48.752V53H161.287V44.738ZM170.654 53.18C170.078 53.18 169.478 53.108 168.854 52.964C168.242 52.808 167.804 52.628 167.54 52.424L168.188 50.894C168.908 51.398 169.73 51.65 170.654 51.65C171.578 51.65 172.04 51.38 172.04 50.84C172.04 50.6 171.944 50.414 171.752 50.282C171.56 50.15 171.218 49.994 170.726 49.814L170.042 49.562C169.322 49.274 168.752 48.932 168.332 48.536C167.912 48.128 167.702 47.594 167.702 46.934C167.702 46.178 167.996 45.59 168.584 45.17C169.184 44.738 169.982 44.522 170.978 44.522C171.47 44.522 171.95 44.576 172.418 44.684C172.898 44.792 173.264 44.93 173.516 45.098L172.814 46.646C172.658 46.49 172.406 46.358 172.058 46.25C171.722 46.13 171.344 46.07 170.924 46.07C170.072 46.07 169.646 46.328 169.646 46.844C169.646 47.132 169.76 47.354 169.988 47.51C170.216 47.654 170.588 47.816 171.104 47.996C171.152 48.008 171.338 48.074 171.662 48.194C172.43 48.494 173 48.836 173.372 49.22C173.744 49.604 173.93 50.096 173.93 50.696C173.93 51.512 173.618 52.13 172.994 52.55C172.382 52.97 171.602 53.18 170.654 53.18Z" fill="black"/>
</svg>
